<svg width="37" height="40" viewBox="0 0 37 40" fill="none" xmlns="http://www.w3.org/2000/svg">
<path d="M32.4095 14.816C32.4095 16.6648 31.7544 18.5296 30.4292 19.9481L28.2255 22.3069L18.7406 32.4594C18.696 32.5072 18.6811 32.5232 18.6364 32.5551C18.5917 32.5232 18.5768 32.5072 18.5322 32.4594L6.84364 19.9481C5.51844 18.5296 4.86328 16.6808 4.86328 14.816C4.86328 12.9513 5.51844 11.0865 6.84364 9.66802C9.49403 6.84699 13.7823 6.84699 16.4327 9.66802L18.6215 12.0268L20.8252 9.66802C23.4756 6.84699 27.749 6.84699 30.3994 9.66802C31.7544 11.0865 32.4095 12.9353 32.4095 14.816Z" stroke="black" stroke-width="1.11111" stroke-linecap="round" stroke-linejoin="round"/>
</svg>
