<svg width="48" height="48" viewBox="0 0 48 48" fill="none" xmlns="http://www.w3.org/2000/svg">
<g filter="url(#filter0_d_241_671)">
<path d="M35.1192 33.3736H46C46 33.3736 46 25.7161 46 20.0287C46 17.0708 43.1322 13.3511 37.6652 13.6112C33.7636 13.5308 29.4018 16.4686 29.2768 20.0287C29.0165 27.4471 29.2117 31.1679 29.2768 33.3736H35.1192Z" fill="#5A5223"/>
<path d="M20.5251 1H10.9712V17.1868V33.3736H20.5251V1Z" fill="#5A5223"/>
<path d="M10.9712 1H20.5251V33.3736M10.9712 1V17.1868V33.3736H20.5251M10.9712 1H2V20.0287V44L10.9712 35.8448L20.5251 44V33.3736M29.2768 33.3736C29.2117 31.1679 29.0165 27.4471 29.2768 20.0287C29.4018 16.4686 33.7636 13.5308 37.6652 13.6112C43.1322 13.3511 46 17.0708 46 20.0287C46 25.7161 46 33.3736 46 33.3736H35.1192H29.2768ZM29.2768 33.3736H20.5251" stroke="black" stroke-width="0.543715"/>
</g>
<defs>
<filter id="filter0_d_241_671" x="0.415218" y="0.728027" width="47.1696" height="46.5123" filterUnits="userSpaceOnUse" color-interpolation-filters="sRGB">
<feFlood flood-opacity="0" result="BackgroundImageFix"/>
<feColorMatrix in="SourceAlpha" type="matrix" values="0 0 0 0 0 0 0 0 0 0 0 0 0 0 0 0 0 0 127 0" result="hardAlpha"/>
<feOffset dy="1.31281"/>
<feGaussianBlur stdDeviation="0.656405"/>
<feComposite in2="hardAlpha" operator="out"/>
<feColorMatrix type="matrix" values="0 0 0 0 0 0 0 0 0 0 0 0 0 0 0 0 0 0 0.25 0"/>
<feBlend mode="normal" in2="BackgroundImageFix" result="effect1_dropShadow_241_671"/>
<feBlend mode="normal" in="SourceGraphic" in2="effect1_dropShadow_241_671" result="shape"/>
</filter>
</defs>
</svg>
